<?xml version="1.0" standalone="no"?>
<!DOCTYPE svg PUBLIC "-//W3C//DTD SVG 20010904//EN"
 "http://www.w3.org/TR/2001/REC-SVG-20010904/DTD/svg10.dtd">
<svg version="1.0" xmlns="http://www.w3.org/2000/svg"
 width="533.000000pt" height="533.000000pt" viewBox="0 0 533.000000 533.000000"
 preserveAspectRatio="xMidYMid meet">
<metadata>
Created by potrace 1.14, written by Peter Selinger 2001-2017
</metadata>
<g transform="translate(0.000000,533.000000) scale(0.100000,-0.100000)"
fill="#000000" stroke="none">
<path d="M656 4484 c-23 -59 55 -677 102 -814 40 -114 124 -253 226 -375 86
-102 192 -247 224 -306 45 -84 78 -192 91 -299 7 -52 17 -125 22 -162 5 -37 9
-86 9 -110 0 -38 -1 -41 -16 -27 -14 14 -21 13 -72 -12 -31 -15 -83 -40 -115
-55 -52 -23 -61 -32 -82 -78 -19 -43 -44 -150 -69 -306 -12 -70 -40 -468 -41
-565 0 -55 -3 -105 -7 -111 -4 -5 -6 -93 -5 -195 1 -195 -26 -478 -47 -491
-45 -29 166 -50 296 -30 63 10 71 9 145 -20 l78 -31 385 -1 c296 -1 399 2 448
13 34 8 65 18 68 22 6 11 -1 11 -49 0 -59 -14 -94 2 -107 48 -12 47 -29 451
-29 706 0 166 3 197 21 247 17 48 20 73 16 165 -5 120 -26 182 -108 325 -135
233 -153 249 -328 283 -45 9 -94 21 -107 27 -53 24 -69 79 -90 323 -8 94 -21
197 -30 230 -26 103 -99 235 -284 512 l-179 268 -65 185 c-65 187 -85 248
-133 419 -29 103 -52 149 -98 199 -32 35 -60 41 -70 16z m787 -2232 c11 -10
17 -30 17 -61 l0 -46 -24 51 c-13 28 -29 55 -35 58 -6 4 -11 11 -11 16 0 12
30 1 53 -18z m-168 -15 c-18 -28 -30 -106 -21 -141 3 -14 16 -35 29 -47 l22
-21 -32 16 c-58 29 -65 136 -12 192 28 30 34 31 14 1z m400 -1100 c39 -8 81
-19 94 -26 52 -28 81 -161 81 -374 0 -129 8 -123 -158 -126 -63 -1 -125 -7
-139 -12 -13 -5 -58 -9 -99 -9 l-74 0 0 38 c0 57 -19 85 -70 102 -63 21 -70
27 -70 63 0 39 27 97 115 251 l68 119 91 -6 c50 -4 123 -13 161 -20z m195
-598 c0 -5 -37 -9 -82 -8 -92 1 -92 5 -3 17 62 9 85 6 85 -9z m-231 -14 c3 -3
-13 -5 -36 -4 -27 2 -39 7 -36 15 3 9 13 10 35 3 17 -4 33 -11 37 -14z"/>
<path d="M2783 4385 c-17 -7 -38 -24 -47 -37 -46 -70 -88 -265 -90 -418 -1
-110 0 -117 28 -168 35 -63 53 -79 70 -66 92 68 145 114 221 191 78 79 105 99
177 133 47 22 93 40 101 40 41 0 24 29 -73 122 -199 191 -297 243 -387 203z"/>
<path d="M4490 4021 c-74 -25 -257 -104 -269 -116 -2 -2 34 -44 80 -94 97
-102 172 -235 190 -336 6 -33 15 -64 20 -70 15 -15 85 61 123 135 52 99 100
277 100 377 1 73 -2 84 -23 107 -34 36 -108 35 -221 -3z"/>
<path d="M3263 3847 c12 -32 -11 -53 -53 -49 -60 6 -241 -26 -270 -47 -38 -27
-63 -70 -105 -175 -41 -104 -53 -120 -104 -133 -26 -7 -36 -16 -45 -43 -10
-31 -16 -35 -56 -42 -34 -6 -59 -3 -104 12 -32 11 -63 17 -67 14 -23 -14 9
-202 51 -296 10 -24 28 -85 39 -137 12 -52 22 -96 24 -97 2 -2 46 -10 100 -19
145 -23 365 -120 493 -217 68 -51 74 -62 74 -136 0 -79 17 -100 93 -112 73
-11 134 -45 164 -89 39 -58 112 -298 119 -395 4 -47 11 -83 15 -80 5 3 31 51
59 107 40 83 55 132 82 257 34 160 37 205 23 372 -8 103 2 151 45 205 19 25
16 63 -5 63 -7 0 -31 18 -54 41 -46 47 -65 47 -69 -1 l-3 -33 -34 33 c-18 18
-48 35 -67 39 -31 7 -32 8 -12 19 12 6 55 17 95 24 52 8 79 18 91 32 35 43 14
65 -92 96 -41 12 -81 27 -88 32 -16 13 -23 6 -37 -35 -9 -29 -14 -32 -45 -29
-49 5 -80 26 -73 51 7 28 22 38 75 52 40 11 61 10 158 -9 160 -32 229 -72 269
-157 40 -84 19 -166 -64 -248 -30 -31 -47 -59 -59 -100 -33 -114 17 -223 72
-157 11 13 61 32 142 55 137 38 264 97 288 133 18 28 12 88 -17 155 -27 62
-20 94 42 184 27 40 55 94 63 119 19 62 18 159 -2 217 -16 48 -89 139 -128
159 -12 6 -5 -5 17 -26 35 -35 48 -66 28 -66 -11 0 -131 98 -131 106 0 4 14 4
32 2 32 -5 32 -5 10 13 -30 24 -28 35 3 15 33 -22 35 -21 35 18 0 32 3 35 33
39 25 3 22 4 -15 5 -39 2 -48 -1 -53 -18 -7 -23 -9 -23 -85 -21 -77 3 -352 77
-615 165 -72 25 -160 50 -206 60 -17 4 -31 16 -39 36 -14 33 -49 69 -37 37z
m107 -186 c0 -16 -6 -17 -47 -14 -45 4 -104 -5 -145 -22 -13 -5 -18 -3 -18 8
0 25 62 43 158 46 44 1 52 -2 52 -18z m144 -52 c43 -38 59 -69 35 -69 -12 0
-122 87 -127 101 -2 5 7 9 21 9 14 0 43 -17 71 -41z m-129 -3 c36 -15 65 -59
65 -100 0 -13 -12 -38 -26 -55 -65 -77 -184 -32 -184 70 0 42 16 68 53 84 41
18 50 18 92 1z m735 -91 c0 -11 -12 -15 -47 -15 -44 1 -47 2 -29 15 26 20 76
20 76 0z m63 -67 c26 -13 49 -74 42 -108 -9 -39 -47 -71 -94 -77 -36 -5 -44
-2 -76 30 -93 93 9 217 128 155z m-631 -45 c23 -20 24 -80 1 -105 -24 -26 -69
-23 -89 7 -13 20 -14 30 -4 60 18 53 57 70 92 38z m788 -158 c18 -21 15 -73
-5 -95 -20 -22 -65 -26 -83 -8 -16 16 -15 80 1 100 22 29 65 30 87 3z"/>
<path d="M4246 3639 c-14 -11 -26 -27 -26 -35 0 -23 20 -16 30 10 5 13 17 29
27 35 10 6 13 11 7 11 -6 0 -23 -9 -38 -21z"/>
<path d="M3125 2145 c-53 -24 -206 -141 -233 -177 -7 -10 -17 -18 -22 -18 -17
0 -222 -205 -247 -247 -14 -24 -31 -43 -38 -43 -25 0 -56 -130 -36 -153 11
-14 4 -57 -10 -57 -5 0 -9 -10 -9 -21 0 -12 -20 -44 -45 -70 -74 -79 -62 -88
70 -54 114 29 237 33 307 9 89 -30 125 -78 261 -351 124 -247 153 -327 126
-344 -8 -5 -61 -9 -118 -9 -175 0 -109 -7 136 -15 266 -8 433 0 433 21 0 21
-33 84 -44 85 -98 4 -104 6 -145 38 -78 62 -138 224 -127 344 8 88 37 193 77
276 47 99 48 110 50 300 1 203 -3 221 -77 327 -52 75 -68 94 -81 94 -4 0 -24
18 -44 40 -35 38 -39 40 -95 40 -33 -1 -72 -7 -89 -15z"/>
</g>
</svg>
